# 3ds Max Wavefront OBJ Exporter v0.97b - (c)2007 guruware
# File Created: 30.12.2016 16:01:15

#
# object Box01
#

v  -0.0249 0.0000 0.0281
v  -0.0249 -0.0000 -0.0287
v  0.0249 -0.0000 -0.0287
v  0.0249 0.0000 0.0281
v  -0.0249 0.0218 0.0311
v  0.0249 0.0218 0.0311
v  0.0249 0.0218 -0.0311
v  -0.0249 0.0218 -0.0311
v  0.0249 0.0080 0.0311
v  -0.0249 0.0080 0.0311
v  0.0249 0.0124 0.0311
v  -0.0249 0.0120 0.0311
v  0.0249 0.0080 -0.0311
v  0.0249 0.0124 -0.0311
v  -0.0249 0.0080 -0.0311
v  -0.0249 0.0124 -0.0311
# 16 vertices

vn -0.5982 -0.6572 0.4585
vn -0.5938 -0.6438 -0.4826
vn 0.5938 -0.6438 -0.4826
vn 0.5982 -0.6572 0.4585
vn -0.5774 0.5774 0.5774
vn 0.5774 0.5774 0.5774
vn 0.5774 0.5774 -0.5774
vn -0.5774 0.5774 -0.5774
vn 0.6697 -0.1302 0.7311
vn -0.6697 -0.1302 0.7311
vn 0.7071 0.0000 0.7071
vn -0.7071 0.0000 0.7071
vn 0.6766 -0.1044 -0.7290
vn 0.7071 0.0000 -0.7071
vn -0.6766 -0.1044 -0.7290
vn -0.7071 0.0000 -0.7071
# 16 vertex normals

vt 0.5366 0.0549 0.0000
vt 0.9757 0.0548 0.0000
vt 0.9758 0.4388 0.0000
vt 0.5368 0.4389 0.0000
vt 0.0335 0.4341 0.0000
vt 0.0334 0.0560 0.0000
vt 0.5060 0.0559 0.0000
vt 0.5061 0.4339 0.0000
vt 0.5751 0.7639 0.0000
vt 0.9710 0.7644 0.0000
vt 0.9709 0.8326 0.0000
vt 0.5750 0.8321 0.0000
vt 0.9708 0.8671 0.0000
vt 0.5749 0.8635 0.0000
vt 0.9707 0.9418 0.0000
vt 0.5748 0.9413 0.0000
vt 0.0451 0.5076 0.0000
vt 0.5164 0.5076 0.0000
vt 0.5359 0.5742 0.0000
vt 0.0206 0.5742 0.0000
vt 0.5359 0.6102 0.0000
vt 0.0206 0.6102 0.0000
vt 0.5359 0.6880 0.0000
vt 0.0206 0.6880 0.0000
vt 0.5672 0.5108 0.0000
vt 0.9637 0.5108 0.0000
vt 0.9637 0.5776 0.0000
vt 0.5672 0.5776 0.0000
vt 0.9637 0.6122 0.0000
vt 0.5672 0.6122 0.0000
vt 0.9637 0.6870 0.0000
vt 0.5672 0.6870 0.0000
vt 0.0426 0.7674 0.0000
vt 0.5138 0.7674 0.0000
vt 0.5383 0.8340 0.0000
vt 0.0231 0.8340 0.0000
vt 0.5383 0.8667 0.0000
vt 0.0231 0.8700 0.0000
vt 0.5383 0.9477 0.0000
vt 0.0231 0.9477 0.0000
# 40 texture coords

o Box01
g Box01
f 1/1/1 2/2/2 3/3/3 4/4/4 
f 5/5/5 6/6/6 7/7/7 8/8/8 
f 1/9/1 4/10/4 9/11/9 10/12/10 
f 10/12/10 9/11/9 11/13/11 12/14/12 
f 12/14/12 11/13/11 6/15/6 5/16/5 
f 4/17/4 3/18/3 13/19/13 9/20/9 
f 9/20/9 13/19/13 14/21/14 11/22/11 
f 11/22/11 14/21/14 7/23/7 6/24/6 
f 3/25/3 2/26/2 15/27/15 13/28/13 
f 13/28/13 15/27/15 16/29/16 14/30/14 
f 14/30/14 16/29/16 8/31/8 7/32/7 
f 2/33/2 1/34/1 10/35/10 15/36/15 
f 15/36/15 10/35/10 12/37/12 16/38/16 
f 16/38/16 12/37/12 5/39/5 8/40/8 
# 14 polygons

